<svg height="512" viewBox="0 0 64 64" width="512" xmlns="http://www.w3.org/2000/svg"><g id="Flat"><path d="m52 35v7l-3 19h-34l-3-19v-7z" fill="#c5c3ce"/><path d="m4 47-1 14h12l-2-14z" fill="#a9adbc"/><path d="m60 47 1 14h-12l2-14z" fill="#a9adbc"/><path d="m25 38s-.08.9-.34 2.23c-.14.71-.32 1.55-.58 2.43-.08.29-.17.58-.26.88-.23.7-.49 1.41-.8 2.11-1.02 2.35-2.65 4.56-5.02 5.35-6 2-15-5-15-5v-6c0-5 5-6 5-6h10a2 2 0 0 0 1.16-.37c1.84-1.3 1.84-5.63 1.84-5.63h4z" fill="#dfdce8"/><path d="m61 40v6s-9 7-15 5a8.62 8.62 0 0 1 -4.69-4.67 17.25 17.25 0 0 1 -.89-2.09c-.21-.57-.38-1.14-.53-1.69-.25-.88-.44-1.71-.57-2.41-.24-1.28-.32-2.14-.32-2.14v-10h4s0 4.29 1.81 5.62a2 2 0 0 0 1.19.38h10s5 1 5 6z" fill="#dfdce8"/><path d="m17 58.16a11.84 11.84 0 0 1 -2.2-.16 1 1 0 0 1 .39-2c.07 0 4.53.84 7.1-1.73s2.71-4.27 2.71-4.27a1 1 0 0 1 .55-.87l6-3a1 1 0 0 1 .89 0l6 3a1 1 0 0 1 .56.87 5.45 5.45 0 0 0 2.55 4.17c2.71 1.83 7.45 1.83 7.45 1.83a1 1 0 0 1 0 2c-.22 0-5.34 0-8.55-2.17a7.58 7.58 0 0 1 -3.39-5.18l-5.06-2.53-5.09 2.54a10.83 10.83 0 0 1 -3.2 5 9.46 9.46 0 0 1 -6.71 2.5z" fill="#9b9faa"/><g fill="#c5c3ce"><path d="m23.82 43.54c-.23.7-.49 1.41-.8 2.11l-9.77-11a1 1 0 0 1 -.25-.65h2.34z"/><path d="m24.66 40.23c-.14.71-.32 1.55-.58 2.43l-7.22-8.66h1.14a2 2 0 0 0 1.16-.37z"/><path d="m47.09 34-7.2 8.55c-.25-.88-.44-1.71-.57-2.41l5.49-6.52a2 2 0 0 0 1.19.38z"/><path d="m51 34a1 1 0 0 1 -.22.63l-9.47 11.7a17.25 17.25 0 0 1 -.89-2.09l8.29-10.24z"/></g><path d="m3 57h16v4h-16z" fill="#e9e6f2"/><path d="m8 57-3-39 6-15v54z" fill="#f8f8ff"/><path d="m14 57 3-39-6-15v54z" fill="#f0edfa"/><path d="m24 9s4-5 8-5 8 5 8 5v11h-16z" fill="#c5c3ce"/><path d="m21 17v-5l3-3 2 10z" fill="#f8f8ff"/><path d="m43 17v-5l-3-3-2 11z" fill="#f8f8ff"/><path d="m22 22h-5v-8h4z" fill="#dfdce8"/><path d="m47 22h-5l1-8h4z" fill="#dfdce8"/><path d="m42 30-10 5-10-5-1-12 11 3 11-3z" fill="#c5c3ce"/><path d="m32 22-11-3v-4l9 1v-11l2-2 2 2v11l9-1v4z" fill="#e9e6f2"/><path d="m25 38 7 4 7-4 3-8-10 5-10-5z" fill="#e9e6f2"/><path d="m26 30a1 1 0 0 1 -1-.8l-1-5a1 1 0 0 1 2-.39l1 5a1 1 0 0 1 -.8 1.19z" fill="#9b9faa"/><path d="m30 31a1 1 0 0 1 -1-.8l-1-5a1 1 0 0 1 2-.39l1 5a1 1 0 0 1 -.8 1.19z" fill="#9b9faa"/><path d="m38 30h-.2a1 1 0 0 1 -.8-1.2l1-5a1 1 0 1 1 2 .39l-1 5a1 1 0 0 1 -1 .81z" fill="#9b9faa"/><path d="m34 31h-.2a1 1 0 0 1 -.8-1.2l1-5a1 1 0 1 1 2 .39l-1 5a1 1 0 0 1 -1 .81z" fill="#9b9faa"/></g></svg>